<svg xmlns="http://www.w3.org/2000/svg" viewBox="0 0 1600 1000" role="img" aria-labelledby="title desc">
  <title id="title">Madar concept website</title><desc id="desc">A technical editorial website concept in cream, ink, and cobalt.</desc>
  <rect width="1600" height="1000" fill="#e8e5dc"/><path d="M0 200h1600M0 400h1600M0 600h1600M0 800h1600M320 0v1000M640 0v1000M960 0v1000M1280 0v1000" stroke="#d2cec2"/>
  <rect x="120" y="85" width="1360" height="830" fill="#f5f3ed" stroke="#bdb9ad"/><path d="M120 160h1360" stroke="#d7d4ca"/>
  <circle cx="158" cy="122" r="7" fill="#3157d5"/><circle cx="184" cy="122" r="7" fill="#d7d4ca"/><text x="1435" y="128" text-anchor="end" font-family="monospace" font-size="16" fill="#68675f">CONCEPT / 001</text>
  <text x="220" y="330" font-family="Arial" font-size="24" letter-spacing="5" fill="#3157d5">INFRASTRUCTURE / CLEARLY</text><text x="220" y="455" font-family="Arial" font-size="118" font-weight="600" fill="#1c1c18">MADAR</text>
  <rect x="220" y="520" width="520" height="2" fill="#1c1c18"/><rect x="220" y="565" width="360" height="15" fill="#d7d4ca"/><rect x="220" y="600" width="440" height="15" fill="#d7d4ca"/>
  <rect x="980" y="260" width="380" height="470" fill="#1c1c18"/><rect x="1030" y="320" width="280" height="170" fill="#3157d5"/><path d="M1060 445l55-60 48 31 82-74" fill="none" stroke="#f5f3ed" stroke-width="5"/><rect x="1030" y="560" width="190" height="12" fill="#68675f"/><rect x="1030" y="600" width="250" height="12" fill="#68675f"/>
  <text x="220" y="840" font-family="monospace" font-size="15" fill="#68675f">WEB / SYSTEM / DESIGN</text>
</svg>
